<?xml version="1.0" encoding="UTF-8" standalone="no"?>
<svg
   xmlns:dc="http://purl.org/dc/elements/1.1/"
   xmlns:cc="http://creativecommons.org/ns#"
   xmlns:rdf="http://www.w3.org/1999/02/22-rdf-syntax-ns#"
   xmlns:svg="http://www.w3.org/2000/svg"
   xmlns="http://www.w3.org/2000/svg"
   id="svg1116"
   version="1.1"
   viewBox="0 0 75.061096 48.462597"
   height="48.462597mm"
   width="75.061096mm">
  <defs
     id="defs1110" />
  <metadata
     id="metadata1113">
    <rdf:RDF>
      <cc:Work
         rdf:about="">
        <dc:format>image/svg+xml</dc:format>
        <dc:type
           rdf:resource="http://purl.org/dc/dcmitype/StillImage" />
        <dc:title></dc:title>
      </cc:Work>
    </rdf:RDF>
  </metadata>
  <g
     style="display:inline"
     transform="translate(-76.618261,-64.971082)"
     id="layer1">
    <g
       style="display:inline;filter:url(#filter1371)"
       transform="matrix(2.4377539,-2.3495443,2.3495443,2.4377539,-167.87993,-340.42352)"
       id="g1122">
      <path
         id="path1078"
         style="font-variation-settings:'wdth' 75, 'wght' 300;fill:none;fill-opacity:0.297189;stroke:#696363;stroke-width:0.0264583;stroke-miterlimit:4;stroke-dasharray:none;stroke-opacity:1"
         d="m -20.472135,149.62187 c 0,2.25315 -1.043112,4.26267 -2.672764,5.57199 -1.223951,0.98337 -2.778755,1.57176 -4.470986,1.57176 -3.945384,0 -7.143749,-3.19837 -7.143749,-7.14375 0,-3.94538 3.198365,-7.14375 7.143749,-7.14375 1.887654,0 3.604307,0.73214 4.881485,1.92795 1.392251,1.30354 2.262265,3.15807 2.262265,5.2158 z" />
      <path
         d="m -21.968844,150.59239 c 0,2.25315 0.453597,3.29215 -1.176055,4.60147 -1.223951,0.98337 -2.778755,1.57176 -4.470986,1.57176 -3.945384,0 -7.143749,-3.19837 -7.143749,-7.14375 0,-3.94538 3.198365,-7.14375 7.143749,-7.14375 1.887654,0 3.604307,0.73214 4.881485,1.92795 1.392251,1.30354 0.765556,4.12859 0.765556,6.18632 z"
         style="font-variation-settings:'wdth' 75, 'wght' 300;fill:none;fill-opacity:0.297189;stroke:#696363;stroke-width:0.0264583;stroke-miterlimit:4;stroke-dasharray:none;stroke-opacity:1"
         id="path1094" />
      <path
         id="path1096"
         style="font-variation-settings:'wdth' 75, 'wght' 300;fill:none;fill-opacity:0.297189;stroke:#696363;stroke-width:0.0264583;stroke-miterlimit:4;stroke-dasharray:none;stroke-opacity:1"
         d="m -22.436566,150.59239 c 0,2.25315 0.921319,3.29215 -0.708333,4.60147 -1.223951,0.98337 -2.778755,1.57176 -4.470986,1.57176 -3.945384,0 -7.143749,-3.19837 -7.143749,-7.14375 0,-3.94538 3.198365,-7.14375 7.143749,-7.14375 1.887654,0 3.604307,0.73214 4.881485,1.92795 1.392251,1.30354 0.297834,4.12859 0.297834,6.18632 z" />
      <path
         d="m -22.787206,150.27921 c 0,2.25315 1.271959,3.60533 -0.357693,4.91465 -1.223951,0.98337 -2.778755,1.57176 -4.470986,1.57176 -3.945384,0 -7.143749,-3.19837 -7.143749,-7.14375 0,-3.94538 3.198365,-7.14375 7.143749,-7.14375 1.887654,0 3.604307,0.73214 4.881485,1.92795 1.392251,1.30354 -0.05281,3.81541 -0.05281,5.87314 z"
         style="font-variation-settings:'wdth' 75, 'wght' 300;fill:none;fill-opacity:0.297189;stroke:#696363;stroke-width:0.0264583;stroke-miterlimit:4;stroke-dasharray:none;stroke-opacity:1"
         id="path1098" />
      <path
         id="path1100"
         style="font-variation-settings:'wdth' 75, 'wght' 300;fill:none;fill-opacity:0.297189;stroke:#696363;stroke-width:0.0264583;stroke-miterlimit:4;stroke-dasharray:none;stroke-opacity:1"
         d="m -23.24493,149.95529 c 0,2.25315 1.729683,3.92925 0.100031,5.23857 -1.223951,0.98337 -2.778755,1.57176 -4.470986,1.57176 -3.945384,0 -7.143749,-3.19837 -7.143749,-7.14375 0,-3.94538 3.198365,-7.14375 7.143749,-7.14375 1.887654,0 3.604307,0.73214 4.881485,1.92795 1.392251,1.30354 -0.51053,3.49149 -0.51053,5.54922 z" />
      <path
         d="m -23.647135,149.65494 c 0,2.25315 2.131888,4.2296 0.502236,5.53892 -1.223951,0.98337 -2.778755,1.57176 -4.470986,1.57176 -3.945384,0 -7.143749,-3.19837 -7.143749,-7.14375 0,-3.94538 3.198365,-7.14375 7.143749,-7.14375 1.887654,0 3.604307,0.73214 4.881485,1.92795 1.392251,1.30354 -0.912735,3.19114 -0.912735,5.24887 z"
         style="font-variation-settings:'wdth' 75, 'wght' 300;fill:none;fill-opacity:0.297189;stroke:#696363;stroke-width:0.0264583;stroke-miterlimit:4;stroke-dasharray:none;stroke-opacity:1"
         id="path1102" />
      <path
         d="m -21.582974,150.49885 c 0,2.25315 0.06773,3.38569 -1.561925,4.69501 -1.223951,0.98337 -2.778755,1.57176 -4.470986,1.57176 -3.945384,0 -7.143749,-3.19837 -7.143749,-7.14375 0,-3.94538 3.198365,-7.14375 7.143749,-7.14375 1.887654,0 3.604307,0.73214 4.881485,1.92795 1.392251,1.30354 1.151426,4.03505 1.151426,6.09278 z"
         style="font-variation-settings:'wdth' 75, 'wght' 300;fill:none;fill-opacity:0.297189;stroke:#696363;stroke-width:0.0264583;stroke-miterlimit:4;stroke-dasharray:none;stroke-opacity:1"
         id="path1104" />
      <path
         d="m -20.752768,150.11298 c 0,2.25315 -0.762479,3.77156 -2.392131,5.08088 -1.223951,0.98337 -2.778755,1.57176 -4.470986,1.57176 -3.945384,0 -7.143749,-3.19837 -7.143749,-7.14375 0,-3.94538 3.198365,-7.14375 7.143749,-7.14375 1.887654,0 3.604307,0.73214 4.881485,1.92795 1.392251,1.30354 1.981632,3.64918 1.981632,5.70691 z"
         style="font-variation-settings:'wdth' 75, 'wght' 300;fill:none;fill-opacity:0;stroke:#696363;stroke-width:0.0264583;stroke-miterlimit:4;stroke-dasharray:none;stroke-opacity:1"
         id="path1106" />
      <path
         id="path1108"
         style="font-variation-settings:'wdth' 75, 'wght' 300;fill:none;fill-opacity:0.297189;stroke:#696363;stroke-width:0.0264583;stroke-miterlimit:4;stroke-dasharray:none;stroke-opacity:1"
         d="m -21.150331,150.61578 c 0,2.25315 -0.364916,3.26876 -1.994568,4.57808 -1.223951,0.98337 -2.778755,1.57176 -4.470986,1.57176 -3.945384,0 -7.143749,-3.19837 -7.143749,-7.14375 0,-3.94538 3.198365,-7.14375 7.143749,-7.14375 1.887654,0 3.604307,0.73214 4.881485,1.92795 1.392251,1.30354 1.584069,4.15198 1.584069,6.20971 z" />
    </g>
  </g>
  <g
     style="display:inline"
     id="layer3">
    <g
       transform="translate(0,16.404171)"
       id="g2387">
      <path
         id="path1128"
         style="font-style:normal;font-variant:normal;font-weight:normal;font-stretch:normal;font-size:7.68286px;line-height:1.25;font-family:Montserrat;-inkscape-font-specification:'Montserrat, Normal';font-variant-ligatures:normal;font-variant-caps:normal;font-variant-numeric:normal;font-variant-east-asian:normal;display:inline;fill:#c8beb7;fill-opacity:1;stroke:#696363;stroke-width:0.17916;stroke-miterlimit:4;stroke-dasharray:none;stroke-opacity:1;filter:url(#filter1371)"
         d="m 5.681243,22.807682 q -1.664761,0 -3.199465,-0.46825 -1.50869,-0.49421 -2.367082,-1.22254 l 0.832379,-1.45667 q 0.858395,0.6763 2.15899,1.1185 1.300595,0.41621 2.705237,0.41621 1.872857,0 2.757261,-0.57225 0.910416,-0.59829 0.910416,-1.66479 0,-0.75433 -0.494225,-1.170541 -0.494225,-0.442169 -1.24857,-0.65029 -0.754346,-0.23395 -2.002916,-0.442209 -1.664762,-0.31216 -2.679227,-0.624289 -1.014466,-0.33823 -1.742799,-1.1185 -0.702321,-0.780341 -0.702321,-2.159 0,-1.716751 1.430654,-2.8092507 1.430657,-1.0924994 3.979822,-1.0924994 1.326608,0 2.653215,0.3641697 1.326608,0.3382297 2.184998,0.9104114 l -0.80637,1.482669 q -1.690773,-1.17054 -4.031843,-1.17054 -1.768807,0 -2.679227,0.624289 -0.884404,0.62429 -0.884404,1.63875 0,0.780341 0.494228,1.248579 0.520238,0.468212 1.274583,0.702302 0.754346,0.20822 2.08095,0.442199 1.638752,0.312171 2.627202,0.624289 0.988454,0.312171 1.690773,1.066501 0.702321,0.754341 0.702321,2.08096 0,1.79479 -1.508686,2.86129 -1.482679,1.0405 -4.135894,1.0405 z" />
      <g
         id="g2378">
        <path
           id="path2329"
           d="m 14.714687,22.669612 h 1.846845 V 8.9873603 h -1.846845 z"
           style="color:#000000;font-style:normal;font-variant:normal;font-weight:normal;font-stretch:normal;font-size:7.68286px;line-height:1.25;font-family:Montserrat;-inkscape-font-specification:'Montserrat, Normal';font-variant-ligatures:normal;font-variant-position:normal;font-variant-caps:normal;font-variant-numeric:normal;font-variant-alternates:normal;font-variant-east-asian:normal;font-feature-settings:normal;font-variation-settings:normal;text-indent:0;text-align:start;text-decoration:none;text-decoration-line:none;text-decoration-style:solid;text-decoration-color:#000000;letter-spacing:normal;word-spacing:normal;text-transform:none;writing-mode:lr-tb;direction:ltr;text-orientation:mixed;dominant-baseline:auto;baseline-shift:baseline;text-anchor:start;white-space:normal;shape-padding:0;shape-margin:0;inline-size:0;clip-rule:nonzero;display:inline;overflow:visible;visibility:visible;isolation:auto;mix-blend-mode:normal;color-interpolation:sRGB;color-interpolation-filters:linearRGB;solid-color:#000000;solid-opacity:1;vector-effect:none;fill:#c8beb7;fill-opacity:1;fill-rule:nonzero;stroke:none;stroke-width:0.17916;stroke-linecap:butt;stroke-linejoin:miter;stroke-miterlimit:4;stroke-dasharray:none;stroke-dashoffset:0;stroke-opacity:1;color-rendering:auto;image-rendering:auto;shape-rendering:auto;text-rendering:auto;enable-background:accumulate;stop-color:#000000" />
        <path
           style="color:#000000;font-style:normal;font-variant:normal;font-weight:normal;font-stretch:normal;font-size:7.68286px;line-height:1.25;font-family:Montserrat;-inkscape-font-specification:'Montserrat, Normal';font-variant-ligatures:normal;font-variant-position:normal;font-variant-caps:normal;font-variant-numeric:normal;font-variant-alternates:normal;font-variant-east-asian:normal;font-feature-settings:normal;font-variation-settings:normal;text-indent:0;text-align:start;text-decoration:none;text-decoration-line:none;text-decoration-style:solid;text-decoration-color:#000000;letter-spacing:normal;word-spacing:normal;text-transform:none;writing-mode:lr-tb;direction:ltr;text-orientation:mixed;dominant-baseline:auto;baseline-shift:baseline;text-anchor:start;white-space:normal;shape-padding:0;shape-margin:0;inline-size:0;clip-rule:nonzero;display:inline;overflow:visible;visibility:visible;isolation:auto;mix-blend-mode:normal;color-interpolation:sRGB;color-interpolation-filters:linearRGB;solid-color:#000000;solid-opacity:1;vector-effect:none;fill:#696363;fill-opacity:1;fill-rule:nonzero;stroke:none;stroke-width:0.17916;stroke-linecap:butt;stroke-linejoin:miter;stroke-miterlimit:4;stroke-dasharray:none;stroke-dashoffset:0;stroke-opacity:1;color-rendering:auto;image-rendering:auto;shape-rendering:auto;text-rendering:auto;enable-background:accumulate;stop-color:#000000"
           d="M 14.625,8.8984375 V 22.759766 h 0.08984 1.935547 V 8.8984375 Z m 0.179688,0.1777344 h 1.667968 V 22.580078 h -1.667968 z"
           id="path2331" />
      </g>
      <path
         id="path1132"
         style="font-style:normal;font-variant:normal;font-weight:normal;font-stretch:normal;font-size:7.68286px;line-height:1.25;font-family:Montserrat;-inkscape-font-specification:'Montserrat, Normal';font-variant-ligatures:normal;font-variant-caps:normal;font-variant-numeric:normal;font-variant-east-asian:normal;display:inline;fill:#c8beb7;fill-opacity:1;stroke:#696363;stroke-width:0.17916;stroke-miterlimit:4;stroke-dasharray:none;stroke-opacity:1;filter:url(#filter1371)"
         d="m 28.696899,8.8913129 q 2.57518,0 4.08387,1.5086681 1.5347,1.482672 1.5347,4.344001 v 7.93362 h -1.84684 v -7.751539 q 0,-2.133 -1.06649,-3.251499 -1.06649,-1.118503 -3.0434,-1.118503 -2.21101,0 -3.5116,1.326592 -1.27459,1.30062 -1.27459,3.615658 v 7.179291 H 21.725708 V 8.9953526 h 1.768811 v 2.5231304 q 0.75434,-1.24855 2.08095,-1.9248707 1.35262,-0.7022994 3.12143,-0.7022994 z" />
      <path
         id="path1134"
         style="font-style:normal;font-variant:normal;font-weight:normal;font-stretch:normal;font-size:7.68286px;line-height:1.25;font-family:Montserrat;-inkscape-font-specification:'Montserrat, Normal';font-variant-ligatures:normal;font-variant-caps:normal;font-variant-numeric:normal;font-variant-east-asian:normal;display:inline;fill:#c8beb7;fill-opacity:1;stroke:#696363;stroke-width:0.17916;stroke-miterlimit:4;stroke-dasharray:none;stroke-opacity:1;filter:url(#filter1371)"
         d="m 51.319129,16.408732 h -11.44524 q 0.15608,2.132991 1.63875,3.45958 1.48267,1.30062 3.74571,1.30062 1.27458,0 2.34107,-0.44221 1.06649,-0.46821 1.84685,-1.35262 l 1.04048,1.19654 q -0.91042,1.0925 -2.28906,1.66475 -1.35261,0.57229 -2.99136,0.57229 -2.10697,0 -3.74572,-0.88442 -1.61273,-0.91041 -2.52315,-2.49716 -0.91042,-1.58671 -0.91042,-3.589629 0,-2.002912 0.8584,-3.589661 0.8844,-1.586709 2.39309,-2.4711197 1.5347,-0.8843794 3.43357,-0.8843794 1.89887,0 3.40756,0.8843794 1.50869,0.8844107 2.36709,2.4711197 0.85839,1.560751 0.85839,3.589661 z m -6.60703,-5.930709 q -1.9769,0 -3.32952,1.274579 -1.32661,1.24858 -1.50869,3.2775 h 9.70244 q -0.18209,-2.02892 -1.53471,-3.2775 -1.3266,-1.274579 -3.32952,-1.274579 z" />
      <path
         id="path1136"
         style="font-style:normal;font-variant:normal;font-weight:normal;font-stretch:normal;font-size:7.68286px;line-height:1.25;font-family:Montserrat;-inkscape-font-specification:'Montserrat, Normal';font-variant-ligatures:normal;font-variant-caps:normal;font-variant-numeric:normal;font-variant-east-asian:normal;display:inline;fill:#c8beb7;fill-opacity:1;stroke:#696363;stroke-width:0.17916;stroke-miterlimit:4;stroke-dasharray:none;stroke-opacity:1;filter:url(#filter1371)"
         d="m 74.931429,8.9953526 -5.17637,13.6822494 h -1.7428 l -4.31797,-11.21112 -4.31798,11.21112 h -1.7428 L 52.483159,8.9953526 h 1.76881 l 4.29196,11.6273294 4.39601,-11.6273294 h 1.58673 l 4.37,11.6273294 4.34399,-11.6273294 z" />
    </g>
  </g>
</svg>
